<mxfile host="app.diagrams.net" modified="2024-03-20T01:50:00.506Z" agent="Mozilla/5.0 (Windows NT 10.0; Win64; x64) AppleWebKit/537.36 (KHTML, like Gecko) Chrome/122.0.0.0 Safari/537.36" etag="DyIsYCBoFKtfTRQRkDZT" version="24.0.7" type="github">
  <diagram name="第 1 页" id="LhYoBNnIXYvUIdakrXG9">
    <mxGraphModel dx="1434" dy="790" grid="1" gridSize="10" guides="1" tooltips="1" connect="1" arrows="1" fold="1" page="1" pageScale="1" pageWidth="827" pageHeight="1169" math="0" shadow="0">
      <root>
        <mxCell id="0" />
        <mxCell id="1" parent="0" />
        <mxCell id="S3Cx6Kd6TKJNvWLihpOH-2" value="" style="rounded=0;whiteSpace=wrap;html=1;" vertex="1" parent="1">
          <mxGeometry x="160" y="460" width="420" height="60" as="geometry" />
        </mxCell>
        <mxCell id="S3Cx6Kd6TKJNvWLihpOH-3" value="可视化功能" style="rounded=0;whiteSpace=wrap;html=1;" vertex="1" parent="1">
          <mxGeometry x="230" y="520" width="350" height="40" as="geometry" />
        </mxCell>
        <mxCell id="S3Cx6Kd6TKJNvWLihpOH-4" value="源码功能" style="rounded=0;whiteSpace=wrap;html=1;" vertex="1" parent="1">
          <mxGeometry x="160" y="460" width="70" height="60" as="geometry" />
        </mxCell>
        <mxCell id="S3Cx6Kd6TKJNvWLihpOH-5" value="" style="rounded=0;whiteSpace=wrap;html=1;" vertex="1" parent="1">
          <mxGeometry x="230" y="460" width="70" height="60" as="geometry" />
        </mxCell>
        <mxCell id="S3Cx6Kd6TKJNvWLihpOH-6" value="" style="rounded=0;whiteSpace=wrap;html=1;" vertex="1" parent="1">
          <mxGeometry x="300" y="460" width="70" height="60" as="geometry" />
        </mxCell>
        <mxCell id="S3Cx6Kd6TKJNvWLihpOH-7" value="" style="rounded=0;whiteSpace=wrap;html=1;" vertex="1" parent="1">
          <mxGeometry x="370" y="460" width="70" height="60" as="geometry" />
        </mxCell>
        <mxCell id="S3Cx6Kd6TKJNvWLihpOH-8" value="" style="rounded=0;whiteSpace=wrap;html=1;" vertex="1" parent="1">
          <mxGeometry x="440" y="460" width="70" height="60" as="geometry" />
        </mxCell>
        <mxCell id="S3Cx6Kd6TKJNvWLihpOH-9" value="" style="rounded=0;whiteSpace=wrap;html=1;" vertex="1" parent="1">
          <mxGeometry x="510" y="460" width="70" height="60" as="geometry" />
        </mxCell>
        <mxCell id="S3Cx6Kd6TKJNvWLihpOH-10" value="" style="rounded=0;whiteSpace=wrap;html=1;" vertex="1" parent="1">
          <mxGeometry x="160" y="520" width="70" height="40" as="geometry" />
        </mxCell>
        <mxCell id="S3Cx6Kd6TKJNvWLihpOH-11" value="项目" style="rounded=0;whiteSpace=wrap;html=1;" vertex="1" parent="1">
          <mxGeometry x="160" y="560" width="420" height="40" as="geometry" />
        </mxCell>
      </root>
    </mxGraphModel>
  </diagram>
</mxfile>
